# xmcd
#
# Track frame offsets:
#	150
#	18128
#	32141
#
# Disc length: 577 seconds
#
# Revision: 0
# Processed by: cddbd v1.5.2PL0 Copyright (c) Steve Scherf et al.
# Submitted via: audiograbber 1.83.01
#
DISCID=17023f03
DTITLE=Obscure Oath - Promo
DYEAR=2002
DGENRE=Grind
TTITLE0=Grindmashine
TTITLE1=2 Little Pieces Of Flesh
TTITLE2=A Touch Of...
EXTD=
EXTT0=
EXTT1=
EXTT2=
PLAYORDER=
